<?xml version="1.0" encoding="UTF-8"?>
<svg xmlns="http://www.w3.org/2000/svg" viewBox="0 0 1200 630" width="1200" height="630">
  <!-- Background: brand black -->
  <rect width="1200" height="630" fill="#1A1A1A"/>

  <!-- Subtle grid for depth (very low opacity) -->
  <g opacity="0.04" stroke="#F4F1EA" stroke-width="1">
    <line x1="0" y1="105" x2="1200" y2="105"/>
    <line x1="0" y1="210" x2="1200" y2="210"/>
    <line x1="0" y1="315" x2="1200" y2="315"/>
    <line x1="0" y1="420" x2="1200" y2="420"/>
    <line x1="0" y1="525" x2="1200" y2="525"/>
    <line x1="200" y1="0" x2="200" y2="630"/>
    <line x1="400" y1="0" x2="400" y2="630"/>
    <line x1="600" y1="0" x2="600" y2="630"/>
    <line x1="800" y1="0" x2="800" y2="630"/>
    <line x1="1000" y1="0" x2="1000" y2="630"/>
  </g>

  <!-- Mark icon (left side, scaled from 1024 viewBox) -->
  <!-- Position: x=80, y=center; size=160 -->
  <g transform="translate(80, 235) scale(0.156)">
    <path fill="#11A691" d="M324.3,129.9c86.4-2.9,200.1-2.1,286.7,0c-9.1,30.9-15.4,64.6-14.5,96.9c1.3,58.5,26.6,113.9,69.9,153.1
      c65,59.8,130.1,62.2,212.5,59.3l0.4,159.8c0.1,35.2,1.5,81.4-4.3,115.2c-4.2,24.3-12.6,47.7-24.8,69.1
      c-34,59-87.6,89.1-151.5,106.5c-5.2,1.1-10.5,2-15.8,2.6c-58.1,6.7-155.5,1.3-216.6,2.1c-40.6,0.5-132.4,2.5-167-5
      c-35.3-7.5-68.2-23.4-96-46.3c-44.7-37.3-72.6-91-77.5-149c-2.9-30.7-2.1-122.8-1.4-157c1.2-60.5-5.1-186.7,6.3-239.7
      c7.2-34.9,22.8-67.5,45.4-95C214.9,156.1,264.9,134.9,324.3,129.9z"/>
    <path fill="#11A691" d="M789,130.6c49.3-10.7,97.9,20.4,109,69.6c11,49.2-19.7,98.1-68.8,109.5c-49.6,11.5-99.1-19.6-110.3-69.3
      C707.7,190.6,739.2,141.3,789,130.6z"/>
  </g>

  <!-- Brand name, large -->
  <text x="280" y="290"
        font-family="'Times New Roman', Georgia, serif"
        font-size="96"
        font-weight="400"
        font-style="italic"
        fill="#F4F1EA">SuiteState</text>

  <!-- Tagline -->
  <text x="280" y="345"
        font-family="-apple-system, 'Segoe UI', sans-serif"
        font-size="28"
        font-weight="400"
        fill="#C8C5BC">Open-source Odoo modules from Dubai</text>

  <!-- Bottom accent line + label -->
  <rect x="80" y="520" width="60" height="2" fill="#11A691"/>
  <text x="80" y="555"
        font-family="'Courier New', monospace"
        font-size="18"
        font-weight="500"
        fill="#11A691"
        letter-spacing="2">SUITESTATE.COM</text>
</svg>
