<?xml version="1.0" encoding="utf-8"?>
<!-- Generator: Adobe Illustrator 27.0.0, SVG Export Plug-In . SVG Version: 6.00 Build 0)  -->
<svg version="1.1" id="图层_1" xmlns="http://www.w3.org/2000/svg" xmlns:xlink="http://www.w3.org/1999/xlink" x="0px" y="0px"
	 viewBox="0 0 1024 1024" style="enable-background:new 0 0 1024 1024;" xml:space="preserve">
<style type="text/css">
	.st0{fill:#11A691;}
	.st1{fill:#122E46;}
	.st2{fill:#FFFFFF;}
</style>
<g>
	<path class="st0" d="M324.3,129.9c86.4-2.9,200.1-2.1,286.7,0c-9.1,30.9-15.4,64.6-14.5,96.9c1.3,58.5,26.6,113.9,69.9,153.1
		c65,59.8,130.1,62.2,212.5,59.3l0.4,159.8c0.1,35.2,1.5,81.4-4.3,115.2c-4.2,24.3-12.6,47.7-24.8,69.1
		c-34,59-87.6,89.1-151.5,106.5c-5.2,1.1-10.5,2-15.8,2.6c-58.1,6.7-155.5,1.3-216.6,2.1c-40.6,0.5-132.4,2.5-167-5
		c-35.3-7.5-68.2-23.4-96-46.3c-44.7-37.3-72.6-91-77.5-149c-2.9-30.7-2.1-122.8-1.4-157c1.2-60.5-5.1-186.7,6.3-239.7
		c7.2-34.9,22.8-67.5,45.4-95C214.9,156.1,264.9,134.9,324.3,129.9z"/>
	<path class="st0" d="M789,130.6c49.3-10.7,97.9,20.4,109,69.6c11,49.2-19.7,98.1-68.8,109.5c-49.6,11.5-99.1-19.6-110.3-69.3
		C707.7,190.6,739.2,141.3,789,130.6z"/>
</g>
</svg>
