<?xml version="1.0" encoding="utf-8"?>
<!-- Generator: Adobe Illustrator 27.0.0, SVG Export Plug-In . SVG Version: 6.00 Build 0)  -->
<svg version="1.1" id="图层_1" xmlns="http://www.w3.org/2000/svg" xmlns:xlink="http://www.w3.org/1999/xlink" x="0px" y="0px"
	 viewBox="0 0 1024 306.4" style="enable-background:new 0 0 1024 306.4;" xml:space="preserve">
<style type="text/css">
	.st0{fill:#11A691;}
	.st1{fill:#F4F1EA;}
</style>
<g>
	<path class="st0" d="M130.8,82c16.1-0.5,37.3-0.4,53.4,0c-1.7,5.8-2.9,12-2.7,18.1c0.2,10.9,5,21.2,13,28.5
		c12.1,11.1,24.2,11.6,39.6,11.1l0.1,29.8c0,6.6,0.3,15.2-0.8,21.5c-0.8,4.5-2.3,8.9-4.6,12.9c-6.3,11-16.3,16.6-28.2,19.9
		c-1,0.2-2,0.4-3,0.5c-10.8,1.3-29,0.2-40.4,0.4c-7.6,0.1-24.7,0.5-31.1-0.9c-6.6-1.4-12.7-4.4-17.9-8.6c-8.3-7-13.5-17-14.4-27.8
		c-0.5-5.7-0.4-22.9-0.3-29.3c0.2-11.3-1-34.8,1.2-44.7c1.3-6.5,4.2-12.6,8.5-17.7C110.4,86.9,119.7,82.9,130.8,82z"/>
	<path class="st0" d="M217.4,82.1c9.2-2,18.3,3.8,20.3,13c2.1,9.2-3.7,18.3-12.8,20.4c-9.2,2.1-18.5-3.7-20.6-12.9
		C202.2,93.3,208.1,84.1,217.4,82.1z"/>
</g>
<g>
	<path class="st1" d="M789.3,137.6c-1,0-2.1,0.1-3.1,0.2c-0.4,4.5-0.5,8.1-0.6,12.6c-5.9-10.2-14.3-15.1-26.2-14.2
		c-22.5,2.2-33,19.5-31.3,40.9c2.2,27.2,31.7,42.5,53.5,23.6l3.8-5c-0.2,2.3-1.1,9.2,0.3,10.6c2,2.1,9.4,1.3,11.9,0.1
		c1.1-1.4,1-59.8,0.5-67.3C795.8,137,792.4,137.4,789.3,137.6z M768.3,196c-29.5,5.5-38.7-38-9.4-47.2c5.4-0.3,9.4-0.5,14.5,2
		c5.1,2.6,9,7.2,10.8,12.7C788.8,177.6,782.8,191.3,768.3,196z"/>
	<path class="st1" d="M306.6,149.9c-6.6-2-14.7-4.7-15.4-12.7c-1.5-17.5,25.8-19,35.4-9.9c2.7,2.5,4.4,6.3,5.5,9.5
		c3.5-0.4,9.5-0.8,11.3-4c4-7.3-8.3-17.2-13.5-19.6c-8.3-3.9-15.6-4.7-24.3-4.1c-17,1.9-30.5,12.4-28.6,31.2
		c1.6,16,16.3,21.1,29.6,24.4c8.8,2.3,23.6,4.4,24.9,15.3c1.3,10.1-8.5,15.8-17.3,16.3c-15.9,0.9-23.5-3.9-29.4-18.4
		c-5.6,0.9-14.5,1.9-11.2,9.9c6.5,15.8,21.3,20.8,36.9,21.5c11-0.5,21.4-3,29.2-11.3c5.2-5.5,6.9-12.9,6.5-20.3
		C345,156.7,322.2,154.7,306.6,149.9z"/>
	<path class="st1" d="M661.2,162.2c-5.9-5-11.4-6.3-18.6-8.6c-8.5-2.8-28.3-5-29.4-16c-1.1-10.9,9.3-16,18.6-16
		c7.3-0.2,12,1.5,17.5,6c3.4,1.8,2.9,8.8,6.7,8.5c3.6-0.4,11.7-1.9,10.1-7c-5.2-16.7-24.4-21.4-39.1-20c-8.1,1.1-17.6,4-22.5,10.9
		c-8.7,12.1-7.7,26.9,4.4,36.7c11.6,9.4,41.6,6.9,44.8,22.2c3.1,14.7-18.2,20.3-28.8,16.4c-11.2-3.1-13.5-8.3-17.6-17.8
		c-5.7,1.2-14.3,2.4-11,10.4c6.2,15.4,20.3,20.3,35.6,21.4c11.7-0.3,21.9-3,30-11.3C670.5,189.1,671,170.6,661.2,162.2z"/>
	<path class="st1" d="M929.3,176.1c2.2-3.3,1.1-7.1,0.5-10.9c-1.6-9.3-6.5-18.3-14.5-23.7c-6.3-4.2-13.9-6.1-21.4-5.3
		c-22.7,2.4-33.8,20.1-31.7,41.8c2.1,21.1,20.1,33,40.4,30.9c7.6-0.8,24.7-8.7,25.2-17.3c-1.2-3.9-7.8-6.2-11.2-3.4
		c-14.9,15.2-37.5,10.9-41.6-10.8l33.5,0.1C912.9,177.5,926.4,178.3,929.3,176.1z M875,167.2c3-11.9,7.5-17.1,19.8-19.4
		c13.4-0.8,19.4,7.3,22.5,19c-6,0.3-13.5,0.2-19.7,0.3L875,167.2z"/>
	<path class="st1" d="M551.7,136.2c-10,1.1-17.7,4.2-24.1,12.4c-12,15.1-10.8,41.3,5.1,53.4c15.3,11.6,39.8,8.9,51.3-7
		c1.1-1.6,1.3-2.3,1.4-4.2c-1.5-2.9-6.9-4.4-9.8-4.1l-0.9,0.7c-14.7,16.2-37.2,12.7-42.1-9.8c8.1-0.1,50.7,0.6,54.1-1.1
		c1.9-2.3,1.5-4.5,1.3-7.3C586.4,150.3,571.8,134.6,551.7,136.2z M555.7,167.2c-7.7,0.1-15.3,0.1-23-0.1c3.3-11.4,7-17.2,19.4-19.2
		c14-0.8,19.3,7,22.7,19.1L555.7,167.2z"/>
	<path class="st1" d="M421.2,138c-13.5-3.5-11.8,4.5-11.7,10.2c0.1,5.8,0.2,11.5,0.2,17.2c0.1,19.3-4.2,36.7-28.6,29.2
		c-13.4-4.1-3.4-47.2-8.1-56.2c-2.4-1.5-8.2-0.8-11.2-0.7c-2.1,6.6-0.7,40.6-0.3,48.9c0.7,24.4,35.2,30.1,48.3,10.2v10.3
		c3.2,0.1,10.2,0.8,12.5-0.9c1.1-4.9,0.6-35.7,0.6-43C423,157.9,423.9,138.7,421.2,138z"/>
	<path class="st1" d="M835.1,149.4c4.7,0,28.3,3.4,18-10.8c-1.4-1.9-14.8-0.9-18-0.9c0-4,0.1-8,0.3-11.9c0.4-8.7-2.1-9.5-9.7-9.3
		c-1.3,0.5-2.6,0.6-3,2c-1.6,5.4-0.5,13.6-0.7,19.2c-2.5-0.1-11.3-1-12.2,1.1c-5.9,13.3,6.8,11,12.4,10.7c0,6.7,0.2,15.3,0,22
		c-0.7,18.9-1.4,36.8,23.6,36.7c3,0,7.2-0.6,9.7-2.6c0-2.4,0.4-6.9-1.3-8.6c-4.2-4-11.1,1.4-15.5-3.1c-3.9-3.9-3.7-9.8-3.7-14.9
		L835.1,149.4z"/>
	<path class="st1" d="M492.9,149.7c3.1,0,28.2,3.5,17.8-11.1c-1.4-2-13.6-0.9-17.8-1c0-2.7,0.1-5.5,0.1-8.2c0-8.9,1.8-12.8-8.6-12.9
		c-1.4,0.3-3.1,0.4-3.6,1.8c-2,4.6-0.8,14.2-0.9,19.3c-2.2,0-11.2-0.6-12.4,0.6c-1.8,1.8-1.2,8.6,0.5,10.8c3,1.3,8.8,0.7,12.1,0.5
		c-0.2,14.6-0.8,29.1,0.6,43.6c1.3,13.9,24.1,19.2,32.2,12.5c0.1-2.5,0.6-6.2-1.1-8.3c-1.5-1.8-3.9-1.9-6-1.8
		c-3.1,0.1-7.1,0.9-9.6-1.5c-5.5-5.2-3.4-35.8-3.3-43.9L492.9,149.7L492.9,149.7z"/>
	<path class="st1" d="M701.2,189.3c-0.4-13.1-0.2-26.7-0.2-39.8c4.4,0,27.6,3.8,17.8-10.8c-1.5-2.2-14.2-0.9-17.7-0.9
		c0-3.8,0.1-7.7,0.2-11.5c0.3-8.6-1.4-10.1-9.4-9.8c-1.4,0.4-2.9,0.5-3.3,2.1c-1.2,5.5-0.4,13.4-0.6,19.1c-2.4-0.1-11-0.9-11.9,1.1
		c-6.2,13.2,6.1,10.9,12,11c0,10.7,0.1,21.8-0.1,33c-0.3,15.9,5.9,26,23.4,25.5c3.5-0.1,6.9-0.6,9.8-2.7
		C721.2,185.7,710.1,204.8,701.2,189.3z"/>
	<path class="st1" d="M448.1,137.2c-0.8,0-1.7,0-2.5,0c-1.6,0.5-2.2,0.6-3.2,2c-0.5,2.8-0.4,19.6-0.3,23.6
		c0.3,13.5-0.7,29.5,0.2,42.7c2,2.7,7.2,1.9,10.4,1.8c1.3-0.8,1.8-1,2.1-2.6c0.7-3.4,0.5-60.2-0.2-65.4
		C452.6,137.2,450.9,137.3,448.1,137.2z"/>
	<path class="st1" d="M447.1,106.1c-4.9,0.9-8.1,5.6-7.3,10.5c0.9,4.9,5.6,8.1,10.5,7.3c5-0.8,8.3-5.5,7.4-10.5
		C456.8,108.5,452,105.2,447.1,106.1z"/>
</g>
</svg>
